<svg xmlns:dc="http://purl.org/dc/elements/1.1/" xmlns:cc="http://creativecommons.org/ns#" xmlns:rdf="http://www.w3.org/1999/02/22-rdf-syntax-ns#" xmlns:svg="http://www.w3.org/2000/svg" xmlns="http://www.w3.org/2000/svg" viewBox="0 0 280 280" fill="none"><metadata><rdf:RDF><cc:Work><dc:format>image/svg+xml</dc:format><dc:type rdf:resource="http://purl.org/dc/dcmitype/StillImage"/><dc:title>Avataaars</dc:title><dc:creator><cc:Agent><dc:title>Pablo Stanley</dc:title></cc:Agent></dc:creator><dc:source>https://avataaars.com/</dc:source><cc:license rdf:resource="https://avataaars.com/"/><dc:contributor><cc:Agent><dc:title>Florian Körner</dc:title></cc:Agent></dc:contributor></cc:Work></rdf:RDF></metadata><mask id="avatarsRadiusMask"><rect width="280" height="280" rx="0" ry="0" x="0" y="0" fill="#fff"/></mask><g mask="url(#avatarsRadiusMask)"><g transform="translate(40, 36)"><path d="M100 0C69.072 0 44 25.072 44 56v6.166c-5.675.952-10 5.888-10 11.834v14c0 6.052 4.48 11.058 10.305 11.881 2.067 19.806 14.458 36.541 31.695 44.73V163h-4c-39.764 0-72 32.236-72 72v9h200v-9c0-39.764-32.236-72-72-72h-4v-18.389c17.237-8.189 29.628-24.924 31.695-44.73C161.52 99.058 166 94.052 166 88V74c0-5.946-4.325-10.882-10-11.834V56c0-30.928-25.072-56-56-56z" fill="#FD9841"/><path d="M76 144.611v8A55.79 55.79 0 00100 158a55.789 55.789 0 0024-5.389v-8A55.789 55.789 0 01100 150a55.79 55.79 0 01-24-5.389z" fill="#000" fill-opacity=".1"/></g><g transform="translate(8, 170)"><path d="M108 14.694C92.484 18.38 80.895 25.529 77.228 34.142 50.72 44.765 32 70.696 32 101v9h200v-9.001c0-30.303-18.721-56.234-45.228-66.858-3.667-8.613-15.256-15.761-30.772-19.447V32c0 13.255-10.745 24-24 24s-24-10.745-24-24V14.694z" fill="#25557C"/><path d="M102 63.337a67.11 67.11 0 01-7-2.817V110h7V63.337zm60 0a67.039 67.039 0 007-2.817V98.5a3.5 3.5 0 11-7 0V63.337z" fill="#F4F4F4"/><path d="M187.62 34.488a71.788 71.788 0 0110.832 5.628C197.107 55.615 167.87 68 132 68c30.928 0 56-13.431 56-30 0-1.188-.129-2.36-.38-3.512zm-111.24 0A16.477 16.477 0 0076 38c0 16.569 25.072 30 56 30-35.87 0-65.107-12.385-66.452-27.884a71.783 71.783 0 0110.832-5.628z" fill="#000" fill-opacity=".16"/></g><g transform="translate(86, 134)"><path fill-rule="evenodd" clip-rule="evenodd" d="M35.118 15.128C36.176 24.62 44.226 32 54 32c9.804 0 17.874-7.426 18.892-16.96.082-.767-.775-2.04-1.85-2.04H37.088c-1.08 0-2.075 1.178-1.97 2.128z" fill="#000" fill-opacity=".7"/><path d="M70 13H39a5 5 0 005 5h21a5 5 0 005-5z" fill="#fff"/><path d="M66.694 27.138A10.964 10.964 0 0059 24c-1.8 0-3.5.433-5 1.2-1.5-.767-3.2-1.2-5-1.2-2.995 0-5.71 1.197-7.693 3.138A18.93 18.93 0 0054 32c4.88 0 9.329-1.84 12.694-4.862z" fill="#FF4F6D"/></g><g transform="translate(112, 122)"><path fill-rule="evenodd" clip-rule="evenodd" d="M16 8c0 4.418 5.373 8 12 8s12-3.582 12-8" fill="#000" fill-opacity=".16"/></g><g transform="translate(84, 90)"><path d="M25 27s-6 7.27-6 11.27a6 6 0 1012 0c0-4-6-11.27-6-11.27z" fill="#92D9FF"/><path d="M36 22a6 6 0 11-12 0 6 6 0 0112 0zm52 0a6 6 0 11-12 0 6 6 0 0112 0z" fill="#000" fill-opacity=".6"/></g><g transform="translate(84, 82)"><path fill-rule="evenodd" clip-rule="evenodd" d="M22.766 1.578l.911-.402C28.92-.905 36.865-.033 41.723 2.299c.567.272.18 1.153-.402 1.108-14.919-1.151-24.963 8.146-28.375 14.44-.101.187-.407.208-.482.034-2.308-5.319 4.45-13.985 10.302-16.303zM86.993 12.07c5.761.773 14.746 5.795 13.994 11.607-.024.19-.312.25-.436.091-2.487-3.188-21.712-7.872-28.713-6.894-.641.09-1.064-.571-.627-.984 3.744-3.536 10.62-4.518 15.782-3.82z" fill="#000" fill-opacity=".6"/></g><g transform="translate(7, 0)"><path fill-rule="evenodd" clip-rule="evenodd" d="M180.15 39.92c-2.76-2.82-5.964-5.213-9.081-7.613-.687-.53-1.386-1.046-2.058-1.595-.153-.125-1.719-1.246-1.906-1.659-.451-.993-.19-.22-.128-1.404.079-1.498 3.134-5.73.854-6.7-1.003-.427-2.791.709-3.753 1.084a59.558 59.558 0 01-5.731 1.9c.932-1.857 2.708-5.573-.631-4.579-2.602.775-5.026 2.768-7.64 3.705.865-1.418 4.324-5.811 1.198-6.057-.972-.076-3.803 1.748-4.85 2.138-3.137 1.165-6.341 1.92-9.634 2.513-11.198 2.018-24.293 1.442-34.653 6.54-7.987 3.93-15.874 10.029-20.489 17.794-4.447 7.486-6.11 15.677-7.041 24.254-.683 6.295-.739 12.802-.42 19.119.105 2.07.338 11.611 3.345 8.721 1.498-1.44 1.487-7.253 1.864-9.22.751-3.916 1.474-7.848 2.726-11.638 2.206-6.68 4.809-13.793 10.305-18.393 3.527-2.952 6.004-6.941 9.379-9.919 1.516-1.337.359-1.198 2.797-1.022 1.638.117 3.282.162 4.923.205 3.796.099 7.598.074 11.395.087 7.647.028 15.258.136 22.898-.265 3.395-.177 6.799-.274 10.185-.588 1.891-.175 5.247-1.387 6.804-.461 1.425.847 2.905 3.615 3.928 4.748 2.418 2.679 5.3 4.724 8.126 6.92 5.895 4.58 8.87 10.332 10.661 17.488 1.783 7.13 1.283 13.745 3.49 20.762.389 1.234 1.416 3.36 2.682 1.454.235-.354.175-2.3.175-3.42 0-4.52 1.144-7.91 1.13-12.46-.056-13.832-.504-31.868-10.85-42.439z" fill="#A55728"/></g></g></svg>